<?xml version="1.0" encoding="utf-8"?>
<!-- Generator: Adobe Illustrator 19.0.0, SVG Export Plug-In . SVG Version: 6.00 Build 0)  -->
<svg version="1.1" id="图层_1" xmlns="http://www.w3.org/2000/svg" xmlns:xlink="http://www.w3.org/1999/xlink" x="0px" y="0px"
	 viewBox="-3564 756 550 650" style="enable-background:new -3564 756 550 650;" xml:space="preserve">
<style type="text/css">
	.st0{opacity:0.5;fill:#00141E;stroke:#FFFFFF;stroke-width:4;stroke-miterlimit:10;enable-background:new    ;}
	.st1{enable-background:new    ;}
	.st2{fill:#FFFFFF;}
	.st3{fill:#7CF804;}
	.st4{font-family:'MicrosoftYaHei';}
	.st5{font-size:32px;}
	.st6{fill:#38E1F8;}
	.st7{font-size:36px;}
	.st8{fill:#FCA825;}
	.st9{fill:#F57E0C;}
	.st10{fill:#FFB3B3;}
	.st11{fill:#FF00FF;}
	.st12{fill:none;stroke:#FFF100;stroke-width:6;stroke-miterlimit:10;}
	.st13{fill:#FFF100;}
	.st14{font-size:14.3622px;}
	.st15{fill:none;stroke:#FFF100;stroke-width:2;stroke-miterlimit:10;}
	.st16{fill:#A5A5A5;}
	.st17{fill:#FFF45C;}
	.st18{fill:#00B7EE;}
	.st19{fill:#2E8AA5;}
	.st20{fill:#FEDE02;}
	.st21{opacity:0.44;fill:#FEDE02;enable-background:new    ;}
	.st22{fill:none;stroke:#352511;stroke-miterlimit:10;}
	.st23{opacity:0.4;fill:none;stroke:#604C37;stroke-miterlimit:10;enable-background:new    ;}
</style>
<path id="XMLID_66_" class="st0" d="M-3023.1,1404.2h-532c-3.6,0-6.5-2.9-6.5-6.5V764.3c0-3.6,2.9-6.5,6.5-6.5h532.1
	c3.6,0,6.5,2.9,6.5,6.5v633.3C-3016.6,1401.3-3019.3,1404.2-3023.1,1404.2z"/>
<g id="XMLID_39_">
	<g class="st1">
		<path class="st2" d="M-3297.3,830h2.5v24.3h-2.5V830z M-3295.9,825.1l1.8-1.6c1.4,1.3,2.9,2.8,4.4,4.4l-2,1.8
			C-3293.2,828-3294.6,826.5-3295.9,825.1z M-3287.9,828.2v-2.4h16.9v23.6c0,3-1.4,4.5-4.3,4.5c-1.3,0-2.9,0-5-0.1
			c-0.1-0.7-0.3-1.6-0.5-2.6c1.9,0.1,3.6,0.2,5,0.2c1.5,0,2.3-0.8,2.3-2.4v-20.8H-3287.9z"/>
		<path class="st2" d="M-3267.7,848.8c2.2-0.4,4.4-0.8,6.7-1.2c1.4-5,2.5-9.5,3.1-13.5l2.5,0.6c-1,4-2,8.2-3.2,12.4
			c1.2-0.2,2.5-0.5,3.8-0.8c0,0.9,0.1,1.7,0.2,2.3c-4.5,0.9-8.6,1.8-12.5,2.6L-3267.7,848.8z M-3267.3,830.3h12.9v2.2h-12.9V830.3z
			 M-3266.2,835.1l2.2-0.6c0.9,3.2,1.8,6.6,2.6,10.1l-2.3,0.6C-3264.5,841.9-3265.3,838.5-3266.2,835.1z M-3263.8,824.3l2.2-1
			c0.8,1.5,1.7,3.2,2.6,5.2l-2.3,1.1C-3262.1,827.8-3262.9,826-3263.8,824.3z M-3253.7,839.4h5.9v-15.7h2.5v6.4h8.7v2.4h-8.7v6.9
			h6.9v15h-2.4v-1.8h-10.6v1.8h-2.4V839.4z M-3240.7,841.6h-10.6v8.8h10.6V841.6z"/>
	</g>
	<g class="st1">
		<path class="st2" d="M-3290.5,895.3c0,0.9,0.1,1.8,0.2,2.7c-2.2,1.6-4,3.1-5.6,4.5l-1.4-2c0.7-0.8,1-1.7,1-2.8v-9.5h-3.4V886h5.7
			v12.2C-3292.9,897.3-3291.7,896.4-3290.5,895.3z M-3295.9,876.7c1.4,1.4,3,3,4.7,4.9l-2.1,1.8c-1.6-2.1-3.1-3.8-4.4-5.2
			L-3295.9,876.7z M-3287.2,880.1V893c0,6.1-1.7,10.7-5,13.9c-0.5-0.8-1.1-1.4-1.6-2c2.9-2.8,4.3-6.6,4.3-11.7V878h19.3v25
			c0,2.3-1.1,3.5-3.2,3.5c-1.2,0-2.9,0-4.9-0.1c-0.1-0.8-0.3-1.6-0.5-2.4c2.2,0.1,3.8,0.2,4.8,0.2c1,0,1.6-0.6,1.6-1.7v-22.4
			H-3287.2z M-3286.2,888.7h5.3v-2.9h-4.4v-2h4.4v-3h2.3v3h4.3v2h-4.3v2.9h5.3v2h-12.8V888.7z M-3284.8,893.3h9.6v8h-7.4v1.4h-2.2
			V893.3z M-3277.4,895.3h-5.2v4h5.2V895.3z"/>
		<path class="st2" d="M-3261.4,888.8c0,4.6-0.3,8.1-0.9,10.5c-0.6,2.4-1.8,4.9-3.5,7.4c-0.5-0.6-1.1-1.3-1.9-2.1
			c1.5-2.3,2.5-4.4,3-6.3c0.5-1.9,0.7-4.9,0.7-8.8v-11.1h26.9v2.4h-24.3V888.8z M-3261.4,902.7h10.9v-11.1h-8.6v-2.3h8.6v-7h2.6v7
			h9.7v2.3h-9.7v11.1h10.9v2.3h-24.4V902.7z M-3245.2,895.1l1.8-1.4c1.6,1.6,3.2,3.3,4.7,5.1l-2.1,1.7
			C-3242.8,897.9-3244.3,896.2-3245.2,895.1z"/>
		<path class="st2" d="M-3235.7,901.3c2.2-0.4,4.4-0.8,6.7-1.2c1.4-5,2.5-9.5,3.1-13.5l2.5,0.6c-1,4-2,8.2-3.2,12.4
			c1.2-0.2,2.5-0.5,3.8-0.8c0,0.9,0.1,1.7,0.2,2.3c-4.5,0.9-8.6,1.8-12.5,2.6L-3235.7,901.3z M-3235.3,882.7h12.9v2.2h-12.9V882.7z
			 M-3234.2,887.6l2.2-0.6c0.9,3.2,1.8,6.6,2.6,10.1l-2.3,0.6C-3232.5,894.3-3233.3,890.9-3234.2,887.6z M-3231.8,876.8l2.2-1
			c0.8,1.5,1.7,3.2,2.6,5.2l-2.3,1.1C-3230.1,880.2-3230.9,878.4-3231.8,876.8z M-3221.7,891.8h5.9v-15.7h2.5v6.4h8.7v2.4h-8.7v6.9
			h6.9v15h-2.4v-1.8h-10.6v1.8h-2.4V891.8z M-3208.7,894h-10.6v8.8h10.6V894z"/>
	</g>
	<g class="st1">
		<path class="st2" d="M-3296,936.5h2.1V948c0,2.3-0.1,4.4-0.3,6.3c1.6,2.2,3,4.2,4.3,6.1l-1.8,1.5c-0.9-1.5-1.9-3.1-2.9-4.7
			c-0.7,3.9-1.9,7.1-3.7,9.7c-0.3-0.6-0.7-1.4-1.4-2.4c2.5-3.7,3.8-9.5,3.8-17.5V936.5z M-3299.7,941.6l1.8-0.3
			c0.4,2.6,0.7,4.9,0.9,7.1l-1.8,0.3C-3299,946.3-3299.3,944-3299.7,941.6z M-3293.4,946.7c0.6-1.8,1.1-3.7,1.4-5.7l1.8,0.5
			c-0.4,1.8-0.9,3.7-1.5,5.7C-3292.2,946.9-3292.8,946.8-3293.4,946.7z M-3292.6,949.6c2.7-3.8,4.6-8.1,5.7-13l2.2,0.5
			c-0.3,1-0.6,2-0.9,3h4.9v2c0,0.6-0.1,1.2-0.2,1.8h3.5c0.1-1.6,0.2-4,0.2-7.4h2.2c0,2.5-0.1,5-0.3,7.4h6.3v2.1h-6.1
			c1.4,4.8,3.6,8.3,6.7,10.4c-0.1,0.2-0.6,1-1.5,2.3c-3-2.6-5.1-5.8-6.2-9.7c-0.9,3.6-3,6.9-6.4,10c-0.5-0.7-1.1-1.3-1.7-1.8
			c3.6-2.7,5.8-6.4,6.6-11.2h-3.6c-1.1,4.8-3.6,8.9-7.6,12.3c-0.7-0.7-1.3-1.3-1.8-1.7c1.5-1.2,2.8-2.5,3.8-3.9
			c-0.8-0.7-1.7-1.4-2.7-2.1l1.1-1.5c1.1,0.8,2.1,1.5,2.8,2c0.4-0.7,0.9-1.6,1.4-2.6c-0.9-0.6-1.8-1.3-2.9-2l0.9-1.6
			c1.1,0.6,2,1.2,2.7,1.7c0.4-1.5,0.6-3,0.8-4.5h-3.6c-1.3,3.3-2.8,6.4-4.8,9.2C-3291.6,950.7-3292.1,950.1-3292.6,949.6z
			 M-3291.3,965.8c1.2-2,2.3-4.3,3.3-7l2,0.8c-1,2.4-2,4.8-3.3,7.2L-3291.3,965.8z M-3284.6,960l2-0.6c0.5,1.4,1,3.5,1.8,6.3
			l-2.1,0.6C-3283.3,964.8-3283.9,962.7-3284.6,960z M-3279.7,959.7l1.9-0.8c0.8,1.7,1.7,3.7,2.5,6l-2,0.9
			C-3278.2,963.4-3279,961.4-3279.7,959.7z M-3274.2,959.5l1.8-0.8c1.2,2.2,2.3,4.5,3.3,6.9l-2,1
			C-3272,964.1-3273,961.8-3274.2,959.5z M-3274.1,938.6l1.7-1.2c1.2,1.4,2.2,2.7,2.9,3.8l-1.8,1.3
			C-3271.9,941.6-3272.9,940.2-3274.1,938.6z"/>
		<path class="st2" d="M-3267.7,948.6c3-3.8,5.2-8,6.7-12.6l2.5,0.8c-0.3,1-0.7,1.9-1.1,2.8h21.3v2.2h-22.3
			c-1.7,3.6-3.8,6.9-6.2,9.7C-3267.1,950.3-3267.5,949.3-3267.7,948.6z M-3264.5,952v-2.2h22.2v3.3c0,5,0.6,8.5,1.7,10.6
			c0.5,0.8,0.9,0.7,1.2-0.3c0.3-1.5,0.5-3.3,0.6-5.5c0.8,0.3,1.5,0.5,2.3,0.7c-0.1,1.6-0.3,3.4-0.7,5.3c-0.5,2-1.4,3.1-2.9,3.1
			c-1.1,0-2.1-0.7-2.7-2c-1.3-2.5-1.9-6.4-1.9-11.7V952H-3264.5z M-3261,944.7h20.4v2.1h-20.4V944.7z"/>
		<path class="st2" d="M-3231.5,943.2h6.6c0.5-2.2,0.9-4.6,1.3-7.1l2.7,0.3c-0.4,2.4-0.8,4.6-1.3,6.8h17.3v2.3h-17.9
			c-0.4,1.4-0.8,2.7-1.2,4h15.5v2.2c-1.4,3.4-3.5,6.3-6.4,8.8c2.9,1.8,6.3,3,10.2,3.7c-0.9,1-1.7,1.9-2.2,2.6
			c-3.3-1.1-6.7-2.7-10.1-4.8c-2.7,1.8-6.6,3.5-11.6,5.1c-0.6-0.8-1.2-1.6-1.9-2.3c5.1-1.3,9-2.7,11.5-4.2c-2.7-2.3-4.7-5.3-5.9-8.9
			c-2.3,5.7-5.4,10.4-9.3,14.1c-0.6-0.8-1.1-1.5-1.7-2.1c4.7-4.2,8.2-10.3,10.4-18.1h-8.7v-2.3c0.9-2,1.6-4,2.3-6l2.5,0.7
			C-3230,939.7-3230.7,941.5-3231.5,943.2z M-3211.3,951.7h-11.3c0.9,2.9,2.8,5.4,5.6,7.5C-3214.3,956.9-3212.4,954.4-3211.3,951.7z
			 M-3216.1,938.3l1.4-1.8c2,1.3,4,2.6,5.9,4l-1.7,2C-3212.3,941-3214.2,939.6-3216.1,938.3z"/>
		<path class="st2" d="M-3202.2,940.3h11.5v-4h2.6v4h11.6v17.6h-11.6v3.7c0,1.3,0.7,1.9,2,1.9h7.3c1.4,0,2.3-0.5,2.6-1.4
			c0.3-1,0.6-2.5,0.7-4.4c0.6,0.3,1.5,0.6,2.6,1c-0.3,1.7-0.5,3.1-0.8,4.3c-0.5,2-1.9,2.9-4.3,2.9h-8.3c-2.9,0-4.4-1.4-4.4-4.3v-3.6
			h-8.9v2.2h-2.6V940.3z M-3199.6,947.9h8.9v-5.3h-8.9V947.9z M-3199.6,955.5h8.9v-5.3h-8.9V955.5z M-3179.1,942.6h-9v5.3h9V942.6z
			 M-3179.1,955.5v-5.3h-9v5.3H-3179.1z"/>
		<path class="st2" d="M-3171.7,961.3c2.2-0.4,4.4-0.8,6.7-1.2c1.4-5,2.5-9.5,3.1-13.5l2.5,0.6c-1,4-2,8.2-3.2,12.4
			c1.2-0.2,2.5-0.5,3.8-0.8c0,0.9,0.1,1.7,0.2,2.3c-4.5,0.9-8.6,1.8-12.5,2.6L-3171.7,961.3z M-3171.3,942.8h12.9v2.2h-12.9V942.8z
			 M-3170.2,947.7l2.2-0.6c0.9,3.2,1.8,6.6,2.6,10.1l-2.3,0.6C-3168.5,954.4-3169.3,951-3170.2,947.7z M-3167.8,936.8l2.2-1
			c0.8,1.5,1.7,3.2,2.6,5.2l-2.3,1.1C-3166.1,940.3-3166.9,938.5-3167.8,936.8z M-3157.7,951.9h5.9v-15.7h2.5v6.4h8.7v2.4h-8.7v6.9
			h6.9v15h-2.4V965h-10.6v1.8h-2.4V951.9z M-3144.7,954.1h-10.6v8.8h10.6V954.1z"/>
	</g>
	<path class="st2" d="M-3284.3,1022.8h-12.8v-24.2h3.1v21.4h9.6V1022.8z"/>
	<path class="st2" d="M-3260.9,1022.8h-3.7l-12.2-18.8c-0.3-0.5-0.6-1.1-0.8-1.6h-0.1c0.1,0.5,0.1,1.7,0.1,3.4v17h-3.1v-24.2h3.9
		l11.8,18.5c0.6,0.9,0.9,1.4,1,1.7h0.1c-0.1-0.7-0.2-1.9-0.2-3.5v-16.6h3.1V1022.8z"/>
	<path class="st2" d="M-3236.3,1021.1c-2.4,1.4-5.1,2.1-8.2,2.1c-3.5,0-6.3-1.1-8.5-3.3c-2.1-2.2-3.2-5.2-3.2-8.9
		c0-3.7,1.2-6.8,3.5-9.2s5.4-3.6,9.1-3.6c2.6,0,4.8,0.4,6.6,1.3v3.4c-1.9-1.2-4.2-1.8-6.9-1.8c-2.6,0-4.8,0.9-6.5,2.7
		c-1.7,1.8-2.6,4.2-2.6,7.1c0,3,0.8,5.4,2.4,7.1s3.7,2.5,6.4,2.5c1.8,0,3.4-0.4,4.7-1.1v-6.5h-5.3v-2.8h8.4V1021.1z"/>
	<path class="st2" d="M-3233.5,1008.6c3-3.8,5.2-8,6.7-12.6l2.5,0.8c-0.3,1-0.7,1.9-1.1,2.8h21.3v2.2h-22.3
		c-1.7,3.6-3.8,6.9-6.2,9.7C-3232.9,1010.3-3233.2,1009.3-3233.5,1008.6z M-3230.3,1012v-2.2h22.2v3.3c0,5,0.6,8.5,1.7,10.6
		c0.5,0.8,0.9,0.7,1.2-0.3c0.3-1.5,0.5-3.3,0.6-5.5c0.8,0.3,1.5,0.5,2.3,0.7c-0.1,1.6-0.3,3.4-0.7,5.3c-0.5,2-1.4,3.1-2.9,3.1
		c-1.1,0-2.1-0.7-2.7-2c-1.3-2.5-1.9-6.4-1.9-11.7v-1.2H-3230.3z M-3226.8,1004.7h20.4v2.1h-20.4V1004.7z"/>
	<path class="st2" d="M-3201.5,1011.6c3.6-4.8,6.3-9.9,8-15.3l2.7,0.8c-1,2.6-2.1,5-3.2,7.3v22.4h-2.6v-17.7
		c-1.2,1.9-2.4,3.6-3.7,5.3C-3200.7,1013.5-3201.1,1012.6-3201.5,1011.6z M-3192.7,1015.5c2.7-1.3,5.3-2.7,7.7-4.4v-14.3h2.7v12.3
		c3.2-2.6,6-5.5,8.5-8.9l2.3,1.7c-3,4-6.6,7.6-10.8,10.6v8.8c0,1.4,0.8,2.1,2.3,2.1h4c1.4,0,2.2-0.7,2.5-2c0.3-1.4,0.5-3.1,0.6-4.9
		c0.9,0.3,1.8,0.6,2.8,0.9c-0.2,1.8-0.4,3.4-0.7,4.8c-0.4,2.4-1.9,3.6-4.5,3.6h-5.3c-2.8,0-4.3-1.4-4.3-4.2v-7.3
		c-1.9,1.3-4,2.4-6.2,3.4C-3191.7,1017-3192.2,1016.3-3192.7,1015.5z"/>
	<path class="st2" d="M-3169.5,1021.3c2.2-0.4,4.4-0.8,6.7-1.2c1.4-5,2.5-9.5,3.1-13.5l2.5,0.6c-1,4-2,8.2-3.2,12.4
		c1.2-0.2,2.5-0.5,3.8-0.8c0,0.9,0.1,1.7,0.2,2.3c-4.5,0.9-8.6,1.8-12.5,2.6L-3169.5,1021.3z M-3169,1002.8h12.9v2.2h-12.9V1002.8z
		 M-3168,1007.6l2.2-0.6c0.9,3.2,1.8,6.6,2.6,10.1l-2.3,0.6C-3166.3,1014.4-3167.1,1011-3168,1007.6z M-3165.6,996.8l2.2-1
		c0.8,1.5,1.7,3.2,2.6,5.2l-2.3,1.1C-3163.8,1000.3-3164.7,998.5-3165.6,996.8z M-3155.5,1011.9h5.9v-15.7h2.5v6.4h8.7v2.4h-8.7v6.9
		h6.9v15h-2.4v-1.8h-10.6v1.8h-2.4V1011.9z M-3142.5,1014.1h-10.6v8.8h10.6V1014.1z"/>
	<g class="st1">
		<path class="st2" d="M-3297.6,1211.1h12v-6.8h2.7v6.8h12.2v14.3h-2.6v-1.7h-9.6v11.6h-2.7v-11.6h-9.5v1.7h-2.6V1211.1z
			 M-3295,1221.3h9.5v-7.9h-9.5V1221.3z M-3273.2,1213.4h-9.6v7.9h9.6V1213.4z"/>
		<path class="st2" d="M-3266.6,1206.7h29.3v2.3h-16.5c-1.2,2.8-2.6,5.4-4.3,7.9h18.1v17.9h-2.4v-2.8h-15.9v2.9h-2.4v-14.3
			c-1.7,2.1-3.5,4-5.5,5.8c-0.4-0.9-0.9-1.6-1.4-2.4c4.9-4.2,8.6-9.2,11.2-15.1h-10.1V1206.7z M-3242.4,1219.2h-15.9v10.5h15.9
			V1219.2z"/>
		<path class="st2" d="M-3234.2,1213.2c2.1,1.5,3.9,2.9,5.4,4.2c-0.8,0.9-1.4,1.6-1.8,2.1c-1.8-1.6-3.5-3.1-5.2-4.5L-3234.2,1213.2z
			 M-3231.3,1222.3c1,0.5,1.8,0.9,2.5,1.2c-1.2,4-2.4,7.8-3.5,11.4l-2.6-1.2C-3233.5,1230.1-3232.3,1226.2-3231.3,1222.3z
			 M-3232.7,1205.1c2,1.5,3.8,3,5.4,4.4c-0.7,0.8-1.4,1.5-1.9,2c-1.5-1.5-3.2-3.1-5.2-4.7L-3232.7,1205.1z M-3226.1,1209.9h9v-5.4
			h2.4v5.4h9v25h-2.4v-1.9h-15.6v2h-2.4V1209.9z M-3223.6,1220h6.6v-7.8h-6.6V1220z M-3223.6,1230.7h6.6v-8.6h-6.6V1230.7z
			 M-3208,1212.1h-6.6v7.8h6.6V1212.1z M-3214.6,1230.7h6.6v-8.6h-6.6V1230.7z"/>
		<path class="st2" d="M-3200.5,1223.4l2.5,0.8c-1,3.2-2.1,6-3.3,8.4c-1-0.5-1.8-0.8-2.3-1
			C-3202.4,1229-3201.3,1226.2-3200.5,1223.4z M-3200.4,1208.3h10.9v-3.7h2.5v3.7h10.9v11.6h-2.5v-1.1h-8.4v2.9h-2.5v-2.9h-8.4v1.1
			h-2.5V1208.3z M-3197.9,1216.5h8.4v-5.9h-8.4V1216.5z M-3195.9,1224.1h2.4v5.6c0,1.7,0.7,2.5,2.1,2.5h6.9c1.6,0,2.5-0.7,2.8-2.2
			c0.2-0.9,0.3-2,0.5-3.3c0.9,0.4,1.7,0.7,2.4,0.9c-0.3,1.5-0.5,2.7-0.8,3.6c-0.5,2.1-2,3.2-4.3,3.2h-7.9c-2.7,0-4-1.4-4-4.3V1224.1
			z M-3191.2,1223.7l1.7-1.6c1.6,1.3,3.3,2.8,5.1,4.5l-1.8,1.9C-3187.9,1226.7-3189.5,1225.1-3191.2,1223.7z M-3178.5,1210.5h-8.4
			v5.9h8.4V1210.5z M-3179.7,1224.9l1.8-1.4c1.9,2.2,3.7,4.3,5.4,6.4l-2.1,1.7C-3176.2,1229.4-3177.9,1227.2-3179.7,1224.9z"/>
		<path class="st2" d="M-3171.4,1213.7h18.9c-0.1-2.7-0.2-5.7-0.3-9h2.4c0,3.3,0.1,6.3,0.2,9h9.3v2.2h-9.2
			c0.4,6.8,1.1,11.2,2.1,13.3s2,3.1,3.1,2.9c0.6-0.4,1-1.1,1.1-2s0.4-2.5,0.7-4.5c0.8,0.3,1.6,0.6,2.3,0.9c-0.2,2-0.5,3.8-0.9,5.3
			c-0.6,1.9-1.6,2.8-3.2,2.8c-1.9-0.1-3.3-1.1-4.4-2.8c-1.7-2.3-2.8-7.5-3.3-15.9h-19V1213.7z M-3161.5,1216.6h2.3v4.8h5.8v2.2h-5.8
			v6.4c2.5-0.3,5.1-0.6,7.8-0.9l0.3,2.2c-6.9,0.8-13.5,1.5-19.8,2.1l-0.4-2.3c1.1-0.1,2.2-0.2,3.3-0.3v-12.1h2.3v11.9
			c1.4-0.1,2.8-0.3,4.2-0.4V1216.6z M-3168.7,1207.2h13.9v2.2h-13.9V1207.2z M-3148.5,1207.5l1.4-1.6c1.7,1.2,3.4,2.5,5.2,3.9
			l-1.6,1.8C-3145.2,1210.1-3146.9,1208.7-3148.5,1207.5z"/>
		<path class="st2" d="M-3135.7,1223.2c1.9-0.3,4-0.6,6.6-1.1c-0.1,0.8-0.2,1.6-0.3,2.4c-3.5,0.5-6.5,1-9.2,1.5l-0.5-2.3
			c1.4-1.6,3-3.8,4.8-6.6c-1.7,0.1-3.3,0.2-4.8,0.4l-0.6-2.1c1.9-2.6,3.9-6.4,6-11.1l2.4,0.9c-2.1,4.2-4,7.6-5.5,10
			c1.2,0,2.5-0.1,3.8-0.1c0.7-1.3,1.5-2.7,2.2-4.2l2.3,1.2C-3131.1,1216.4-3133.5,1220.1-3135.7,1223.2z M-3139.7,1230.5
			c3.7-0.8,7.4-1.7,11.1-2.6c-0.1,0.8-0.1,1.6-0.1,2.4c-3.5,0.8-6.9,1.7-10.3,2.6L-3139.7,1230.5z M-3130.3,1232.7
			c3.9-1.4,7.3-3,10.2-4.9c-0.7-1.9-1.3-4.1-1.8-6.7l-6.7,0.9l-0.4-2.3l6.7-0.9c-0.2-1.5-0.3-3-0.4-4.7l-5.7,0.6l-0.4-2.3l5.9-0.7
			c-0.1-2.2-0.2-4.7-0.3-7.5h2.6c0.1,2.7,0.1,5.1,0.2,7.2l10.5-1.2l0.3,2.2l-10.6,1.2c0.1,1.6,0.2,3.2,0.4,4.6l10.8-1.5l0.3,2.2
			l-10.8,1.5c0.4,2.2,0.8,4,1.4,5.6c2.2-1.7,4-3.5,5.5-5.5l2,1.5c-1.9,2.3-4.1,4.3-6.5,6.1c0.8,1.4,1.8,2.5,2.9,3.3
			c1.4,0.8,2.3,0.4,2.7-1.3c0.3-1.3,0.5-2.8,0.7-4.4c1,0.4,1.8,0.7,2.4,0.9c-0.4,2.3-0.7,3.9-1.1,5.1c-0.6,1.8-1.6,2.7-3.1,2.7
			c-1.5,0-2.9-0.6-4.2-1.9c-0.8-0.8-1.6-1.8-2.3-3c-2.9,1.9-6.1,3.5-9.6,4.8C-3129.2,1234.2-3129.7,1233.5-3130.3,1232.7z
			 M-3117.9,1206.1l1.3-1.6c1.5,0.9,3.1,2.1,4.8,3.4l-1.5,1.8C-3115,1208.2-3116.5,1207-3117.9,1206.1z"/>
	</g>
	<g class="st1">
		<path class="st2" d="M-3297.6,1161.8h12v-6.8h2.7v6.8h12.2v14.3h-2.6v-1.7h-9.6v11.6h-2.7v-11.6h-9.5v1.7h-2.6V1161.8z
			 M-3295,1172h9.5v-7.9h-9.5V1172z M-3273.2,1164.1h-9.6v7.9h9.6V1164.1z"/>
		<path class="st2" d="M-3266.6,1157.4h29.3v2.3h-16.5c-1.2,2.8-2.6,5.4-4.3,7.9h18.1v17.9h-2.4v-2.8h-15.9v2.9h-2.4v-14.3
			c-1.7,2.1-3.5,4-5.5,5.8c-0.4-0.9-0.9-1.6-1.4-2.4c4.9-4.2,8.6-9.2,11.2-15.1h-10.1V1157.4z M-3242.4,1169.9h-15.9v10.5h15.9
			V1169.9z"/>
		<path class="st2" d="M-3235.7,1170.5c3.6-4.8,6.3-9.9,8-15.3l2.7,0.8c-1,2.6-2.1,5-3.2,7.3v22.4h-2.6V1168
			c-1.2,1.9-2.4,3.6-3.7,5.3C-3234.9,1172.3-3235.3,1171.4-3235.7,1170.5z M-3227,1174.4c2.7-1.3,5.3-2.7,7.7-4.4v-14.3h2.7v12.3
			c3.2-2.6,6-5.5,8.5-8.9l2.3,1.7c-3,4-6.6,7.6-10.8,10.6v8.8c0,1.4,0.8,2.1,2.3,2.1h4c1.4,0,2.2-0.7,2.5-2c0.3-1.4,0.5-3.1,0.6-4.9
			c0.9,0.3,1.8,0.6,2.8,0.9c-0.2,1.8-0.4,3.4-0.7,4.8c-0.4,2.4-1.9,3.6-4.5,3.6h-5.3c-2.8,0-4.3-1.4-4.3-4.2v-7.3
			c-1.9,1.3-4,2.4-6.2,3.4C-3225.9,1175.9-3226.4,1175.1-3227,1174.4z"/>
		<path class="st2" d="M-3198.4,1155.4h2.5v10c0,5.8-0.4,10-1.2,12.7c-0.7,2.7-2.3,5.3-4.8,7.7c-0.5-0.6-1.2-1.4-1.8-2.1
			c2.3-2.3,3.7-4.7,4.4-7.1c0.6-2.4,0.9-6.1,0.9-11.3V1155.4z M-3188.4,1156.9h2.5v26.6h-2.5V1156.9z M-3178.2,1155.4h2.5v30.2h-2.5
			V1155.4z"/>
		<path class="st2" d="M-3171.7,1167.5c3-3.8,5.2-8,6.7-12.6l2.5,0.8c-0.3,1-0.7,1.9-1.1,2.8h21.3v2.2h-22.3
			c-1.7,3.6-3.8,6.9-6.2,9.7C-3171.1,1169.1-3171.5,1168.2-3171.7,1167.5z M-3168.5,1170.8v-2.2h22.2v3.3c0,5,0.6,8.5,1.7,10.6
			c0.5,0.8,0.9,0.7,1.2-0.3c0.3-1.5,0.5-3.3,0.6-5.5c0.8,0.3,1.5,0.5,2.3,0.7c-0.1,1.6-0.3,3.4-0.7,5.3c-0.5,2-1.4,3.1-2.9,3.1
			c-1.1,0-2.1-0.7-2.7-2c-1.3-2.5-1.9-6.4-1.9-11.7v-1.2H-3168.5z M-3165,1163.6h20.4v2.1h-20.4V1163.6z"/>
	</g>
	<g class="st1">
		<path class="st2" d="M-3297.6,1260.4h12v-6.8h2.7v6.8h12.2v14.3h-2.6v-1.7h-9.6v11.6h-2.7V1273h-9.5v1.7h-2.6V1260.4z
			 M-3295,1270.7h9.5v-7.9h-9.5V1270.7z M-3273.2,1262.7h-9.6v7.9h9.6V1262.7z"/>
		<path class="st2" d="M-3266.6,1256.1h29.3v2.3h-16.5c-1.2,2.8-2.6,5.4-4.3,7.9h18.1v17.9h-2.4v-2.8h-15.9v2.9h-2.4V1270
			c-1.7,2.1-3.5,4-5.5,5.8c-0.4-0.9-0.9-1.6-1.4-2.4c4.9-4.2,8.6-9.2,11.2-15.1h-10.1V1256.1z M-3242.4,1268.6h-15.9v10.5h15.9
			V1268.6z"/>
		<path class="st2" d="M-3234.2,1262.5c2.1,1.5,3.9,2.9,5.4,4.2c-0.8,0.9-1.4,1.6-1.8,2.1c-1.8-1.6-3.5-3.1-5.2-4.5L-3234.2,1262.5z
			 M-3231.3,1271.6c1,0.5,1.8,0.9,2.5,1.2c-1.2,4-2.4,7.8-3.5,11.4l-2.6-1.2C-3233.5,1279.4-3232.3,1275.6-3231.3,1271.6z
			 M-3232.7,1254.4c2,1.5,3.8,3,5.4,4.4c-0.7,0.8-1.4,1.5-1.9,2c-1.5-1.5-3.2-3.1-5.2-4.7L-3232.7,1254.4z M-3226.1,1259.2h9v-5.4
			h2.4v5.4h9v25h-2.4v-1.9h-15.6v2h-2.4V1259.2z M-3223.6,1269.3h6.6v-7.8h-6.6V1269.3z M-3223.6,1280.1h6.6v-8.6h-6.6V1280.1z
			 M-3208,1261.4h-6.6v7.8h6.6V1261.4z M-3214.6,1280.1h6.6v-8.6h-6.6V1280.1z"/>
		<path class="st2" d="M-3203.8,1264.2l1.6-1.8c1.5,1.1,3.2,2.3,4.9,3.8l-1.8,2C-3200.6,1266.7-3202.2,1265.4-3203.8,1264.2z
			 M-3203,1283.4c1.3-3.4,2.6-7.4,3.9-12c0.8,0.4,1.5,0.8,2.3,1.1c-1.4,4.5-2.6,8.5-3.7,11.9L-3203,1283.4z M-3202.6,1256l1.6-1.7
			c2,1.6,3.8,3.1,5.4,4.4l-1.9,1.8C-3199.2,1258.8-3201,1257.3-3202.6,1256z M-3197.1,1266.4c3-3.7,5.4-8,7.2-12.8l2.5,0.8
			c-0.7,1.6-1.4,3.2-2.2,4.6h16.3v2.2h-7.6v4.8h6.8v2.2h-6.8v4.8h6.8v2.2h-6.8v4.9h8v2.2h-17.5v2.5h-2.4v-19.8
			c-0.8,1.3-1.7,2.5-2.6,3.7C-3195.8,1267.9-3196.3,1267.3-3197.1,1266.4z M-3190.3,1266h7.1v-4.8h-7.1V1266z M-3190.3,1272.9h7.1
			v-4.8h-7.1V1272.9z M-3190.3,1279.9h7.1v-4.9h-7.1V1279.9z M-3184.6,1254.8l2-1.3c0.8,1,1.7,2.3,2.8,3.8l-2.2,1.4
			C-3182.9,1257.2-3183.8,1255.9-3184.6,1254.8z"/>
		<path class="st2" d="M-3171.4,1263h18.9c-0.1-2.7-0.2-5.7-0.3-9h2.4c0,3.3,0.1,6.3,0.2,9h9.3v2.2h-9.2c0.4,6.8,1.1,11.2,2.1,13.3
			s2,3.1,3.1,2.9c0.6-0.4,1-1.1,1.1-2s0.4-2.5,0.7-4.5c0.8,0.3,1.6,0.6,2.3,0.9c-0.2,2-0.5,3.8-0.9,5.3c-0.6,1.9-1.6,2.8-3.2,2.8
			c-1.9-0.1-3.3-1.1-4.4-2.8c-1.7-2.3-2.8-7.5-3.3-15.9h-19V1263z M-3161.5,1265.9h2.3v4.8h5.8v2.2h-5.8v6.4
			c2.5-0.3,5.1-0.6,7.8-0.9l0.3,2.2c-6.9,0.8-13.5,1.5-19.8,2.1l-0.4-2.3c1.1-0.1,2.2-0.2,3.3-0.3v-12.1h2.3v11.9
			c1.4-0.1,2.8-0.3,4.2-0.4V1265.9z M-3168.7,1256.5h13.9v2.2h-13.9V1256.5z M-3148.5,1256.9l1.4-1.6c1.7,1.2,3.4,2.5,5.2,3.9
			l-1.6,1.8C-3145.2,1259.4-3146.9,1258.1-3148.5,1256.9z"/>
		<path class="st2" d="M-3135.7,1272.6c1.9-0.3,4-0.6,6.6-1.1c-0.1,0.8-0.2,1.6-0.3,2.4c-3.5,0.5-6.5,1-9.2,1.5l-0.5-2.3
			c1.4-1.6,3-3.8,4.8-6.6c-1.7,0.1-3.3,0.2-4.8,0.4l-0.6-2.1c1.9-2.6,3.9-6.4,6-11.1l2.4,0.9c-2.1,4.2-4,7.6-5.5,10
			c1.2,0,2.5-0.1,3.8-0.1c0.7-1.3,1.5-2.7,2.2-4.2l2.3,1.2C-3131.1,1265.7-3133.5,1269.4-3135.7,1272.6z M-3139.7,1279.8
			c3.7-0.8,7.4-1.7,11.1-2.6c-0.1,0.8-0.1,1.6-0.1,2.4c-3.5,0.8-6.9,1.7-10.3,2.6L-3139.7,1279.8z M-3130.3,1282
			c3.9-1.4,7.3-3,10.2-4.9c-0.7-1.9-1.3-4.1-1.8-6.7l-6.7,0.9l-0.4-2.3l6.7-0.9c-0.2-1.5-0.3-3-0.4-4.7l-5.7,0.6l-0.4-2.3l5.9-0.7
			c-0.1-2.2-0.2-4.7-0.3-7.5h2.6c0.1,2.7,0.1,5.1,0.2,7.2l10.5-1.2l0.3,2.2l-10.6,1.2c0.1,1.6,0.2,3.2,0.4,4.6l10.8-1.5l0.3,2.2
			l-10.8,1.5c0.4,2.2,0.8,4,1.4,5.6c2.2-1.7,4-3.5,5.5-5.5l2,1.5c-1.9,2.3-4.1,4.3-6.5,6.1c0.8,1.4,1.8,2.5,2.9,3.3
			c1.4,0.8,2.3,0.4,2.7-1.3c0.3-1.3,0.5-2.8,0.7-4.4c1,0.4,1.8,0.7,2.4,0.9c-0.4,2.3-0.7,3.9-1.1,5.1c-0.6,1.8-1.6,2.7-3.1,2.7
			c-1.5,0-2.9-0.6-4.2-1.9c-0.8-0.8-1.6-1.8-2.3-3c-2.9,1.9-6.1,3.5-9.6,4.8C-3129.2,1283.5-3129.7,1282.8-3130.3,1282z
			 M-3117.9,1255.4l1.3-1.6c1.5,0.9,3.1,2.1,4.8,3.4l-1.5,1.8C-3115,1257.6-3116.5,1256.4-3117.9,1255.4z"/>
	</g>
	<g class="st1">
		<path class="st2" d="M-3297.6,1309.7h12v-6.8h2.7v6.8h12.2v14.3h-2.6v-1.7h-9.6v11.6h-2.7v-11.6h-9.5v1.7h-2.6V1309.7z
			 M-3295,1320h9.5v-7.9h-9.5V1320z M-3273.2,1312.1h-9.6v7.9h9.6V1312.1z"/>
		<path class="st2" d="M-3266.6,1305.4h29.3v2.3h-16.5c-1.2,2.8-2.6,5.4-4.3,7.9h18.1v17.9h-2.4v-2.8h-15.9v2.9h-2.4v-14.3
			c-1.7,2.1-3.5,4-5.5,5.8c-0.4-0.9-0.9-1.6-1.4-2.4c4.9-4.2,8.6-9.2,11.2-15.1h-10.1V1305.4z M-3242.4,1317.9h-15.9v10.5h15.9
			V1317.9z"/>
		<path class="st2" d="M-3234.2,1311.8c2.1,1.5,3.9,2.9,5.4,4.2c-0.8,0.9-1.4,1.6-1.8,2.1c-1.8-1.6-3.5-3.1-5.2-4.5L-3234.2,1311.8z
			 M-3231.3,1321c1,0.5,1.8,0.9,2.5,1.2c-1.2,4-2.4,7.8-3.5,11.4l-2.6-1.2C-3233.5,1328.7-3232.3,1324.9-3231.3,1321z
			 M-3232.7,1303.7c2,1.5,3.8,3,5.4,4.4c-0.7,0.8-1.4,1.5-1.9,2c-1.5-1.5-3.2-3.1-5.2-4.7L-3232.7,1303.7z M-3226.1,1308.5h9v-5.4
			h2.4v5.4h9v25h-2.4v-1.9h-15.6v2h-2.4V1308.5z M-3223.6,1318.6h6.6v-7.8h-6.6V1318.6z M-3223.6,1329.4h6.6v-8.6h-6.6V1329.4z
			 M-3208,1310.8h-6.6v7.8h6.6V1310.8z M-3214.6,1329.4h6.6v-8.6h-6.6V1329.4z"/>
		<path class="st2" d="M-3203.3,1305h30.4v2.3h-10.1v4.6h8.8v21.9h-2.5v-1.9h-22.3v1.9h-2.5v-21.9h8.5c0-1.5,0.1-3,0.1-4.6h-10.5
			V1305z M-3176.7,1329.6v-5.4h-5.8c-2,0-3-1.1-3-3.4v-6.6h-5c-0.2,4.9-2.2,8.7-6.1,11.6c-0.5-0.6-1.1-1.3-1.9-2
			c3.4-2.2,5.2-5.4,5.4-9.6h-5.9v15.5H-3176.7z M-3190.4,1311.9h4.9v-4.6h-4.8C-3190.4,1308.9-3190.4,1310.5-3190.4,1311.9z
			 M-3181.5,1322h4.8v-7.8h-6.3v6.3C-3183,1321.4-3182.5,1322-3181.5,1322z"/>
		<path class="st2" d="M-3171.7,1315.5c3-3.8,5.2-8,6.7-12.6l2.5,0.8c-0.3,1-0.7,1.9-1.1,2.8h21.3v2.2h-22.3
			c-1.7,3.6-3.8,6.9-6.2,9.7C-3171.1,1317.1-3171.5,1316.2-3171.7,1315.5z M-3168.5,1318.8v-2.2h22.2v3.3c0,5,0.6,8.5,1.7,10.6
			c0.5,0.8,0.9,0.7,1.2-0.3c0.3-1.5,0.5-3.3,0.6-5.5c0.8,0.3,1.5,0.5,2.3,0.7c-0.1,1.6-0.3,3.4-0.7,5.3c-0.5,2-1.4,3.1-2.9,3.1
			c-1.1,0-2.1-0.7-2.7-2c-1.3-2.5-1.9-6.4-1.9-11.7v-1.2H-3168.5z M-3165,1311.6h20.4v2.1h-20.4V1311.6z"/>
		<path class="st2" d="M-3139.2,1327.5h30v2.6h-30V1327.5z M-3136.9,1307h25.5v2.7h-25.5V1307z"/>
		<path class="st2" d="M-3103.7,1321.9c1.9-0.3,4-0.6,6.6-1.1c-0.1,0.8-0.2,1.6-0.3,2.4c-3.5,0.5-6.5,1-9.2,1.5l-0.5-2.3
			c1.4-1.6,3-3.8,4.8-6.6c-1.7,0.1-3.3,0.2-4.8,0.4l-0.6-2.1c1.9-2.6,3.9-6.4,6-11.1l2.4,0.9c-2.1,4.2-4,7.6-5.5,10
			c1.2,0,2.5-0.1,3.8-0.1c0.7-1.3,1.5-2.7,2.2-4.2l2.3,1.2C-3099.1,1315-3101.5,1318.8-3103.7,1321.9z M-3107.7,1329.1
			c3.7-0.8,7.4-1.7,11.1-2.6c-0.1,0.8-0.1,1.6-0.1,2.4c-3.5,0.8-6.9,1.7-10.3,2.6L-3107.7,1329.1z M-3098.3,1331.3
			c3.9-1.4,7.3-3,10.2-4.9c-0.7-1.9-1.3-4.1-1.8-6.7l-6.7,0.9l-0.4-2.3l6.7-0.9c-0.2-1.5-0.3-3-0.4-4.7l-5.7,0.6l-0.4-2.3l5.9-0.7
			c-0.1-2.2-0.2-4.7-0.3-7.5h2.6c0.1,2.7,0.1,5.1,0.2,7.2l10.5-1.2l0.3,2.2l-10.6,1.2c0.1,1.6,0.2,3.2,0.4,4.6l10.8-1.5l0.3,2.2
			l-10.8,1.5c0.4,2.2,0.8,4,1.4,5.6c2.2-1.7,4-3.5,5.5-5.5l2,1.5c-1.9,2.3-4.1,4.3-6.5,6.1c0.8,1.4,1.8,2.5,2.9,3.3
			c1.4,0.8,2.3,0.4,2.7-1.3c0.3-1.3,0.5-2.8,0.7-4.4c1,0.4,1.8,0.7,2.4,0.9c-0.4,2.3-0.7,3.9-1.1,5.1c-0.6,1.8-1.6,2.7-3.1,2.7
			c-1.5,0-2.9-0.6-4.2-1.9c-0.8-0.8-1.6-1.8-2.3-3c-2.9,1.9-6.1,3.5-9.6,4.8C-3097.2,1332.9-3097.7,1332.2-3098.3,1331.3z
			 M-3085.9,1304.7l1.3-1.6c1.5,0.9,3.1,2.1,4.8,3.4l-1.5,1.8C-3083,1306.9-3084.5,1305.7-3085.9,1304.7z"/>
	</g>
	<g class="st1">
		<path class="st2" d="M-3300,1121.9c3.1-4.7,5.4-10.1,7-16.2l2.6,0.7c-0.5,1.7-1,3.3-1.6,4.9h8.7v2.3c-1.1,10.4-5.8,17.9-14,22.8
			c-0.4-0.7-1-1.4-1.6-2.2c4-2.4,7.1-5.4,9.3-9c-1.5-1.2-3.1-2.5-4.9-3.8l1.6-1.9c1.8,1.3,3.3,2.4,4.5,3.4c1.3-2.7,2.1-5.8,2.5-9.3
			h-7c-1.5,3.7-3.3,7.3-5.7,10.8C-3299,1123.7-3299.5,1122.8-3300,1121.9z M-3280.2,1106h2.6v10.8l1.3-1.4c3,2.3,5.6,4.4,8,6.3
			l-1.8,2.3c-2.2-2-4.7-4.2-7.4-6.5v19.2h-2.6V1106z"/>
		<path class="st2" d="M-3267.7,1127.7c1.5-0.4,3.1-0.8,4.8-1.2v-7.4h-4.2v-2.3h4.2v-5.8h-4.4v-2.3h11v2.3h-4.2v5.8h4.1v2.3h-4.1
			v6.7c1.3-0.3,2.6-0.7,3.9-1.1c-0.1,0.8-0.1,1.5,0,2.2c-4.1,1.3-7.7,2.5-10.8,3.5L-3267.7,1127.7z M-3255.2,1110.1v-2.3h17.2v2.3
			h-8c-0.7,2.4-1.5,4.8-2.4,7h2v19.3h-2.5V1118c-2.1,4.9-4.7,9.2-7.7,13c-0.5-0.5-1.2-1.1-2-1.5c4.5-5.4,7.8-11.9,9.9-19.4H-3255.2z
			 M-3243.9,1117.8c3.2,4.3,5.6,7.7,7.3,10.4l-2.1,1.6c-2.2-3.7-4.6-7.3-7.1-10.7L-3243.9,1117.8z"/>
		<path class="st2" d="M-3226.2,1114.6c-0.8-1-1.7-2.1-2.6-3.2l1.4-1h-2.7c-1.2,1.5-2.5,2.9-4,4c-0.4-0.5-0.9-1.1-1.6-1.8
			c2.4-1.9,4.4-4.3,6-7.2h2.7c-0.5,1-1.1,2-1.7,2.9h9.2v1.9h-7.5c0.9,0.9,1.8,1.8,2.7,2.8L-3226.2,1114.6z M-3234.4,1114.8h13.4
			c-0.4-0.7-0.8-1.4-1.3-2.2l2.2-0.9c0.7,1,1.3,2,1.9,3.1h12.3v4.8h-2.4v-2.8h-23.6v2.8h-2.4V1114.8z M-3230.9,1119.1h19.3v7.5h-2.4
			v-0.8h-14.5v2.4h19.5v8.2h-2.4v-1.2h-17.1v1.2h-2.4V1119.1z M-3214,1121h-14.5v3h14.5V1121z M-3211.4,1130.1h-17.1v3.1h17.1
			V1130.1z M-3212,1114.6c-0.7-1-1.5-2-2.5-3.2l1.4-1h-2.6c-0.6,1-1.2,1.9-1.9,2.7c-0.5-0.5-1.1-1-1.9-1.5c1.5-1.6,2.7-3.6,3.7-6
			h2.7c-0.4,1-0.9,2-1.4,2.9h10v1.9h-8c0.9,0.9,1.8,1.8,2.6,2.8L-3212,1114.6z"/>
		<path class="st2" d="M-3199.7,1124.6c1.9-0.3,4-0.6,6.6-1.1c-0.1,0.8-0.2,1.6-0.3,2.4c-3.5,0.5-6.5,1-9.2,1.5l-0.5-2.3
			c1.4-1.6,3-3.8,4.8-6.6c-1.7,0.1-3.3,0.2-4.8,0.4l-0.6-2.1c1.9-2.6,3.9-6.4,6-11.1l2.4,0.9c-2.1,4.2-4,7.6-5.5,10
			c1.2,0,2.5-0.1,3.8-0.1c0.7-1.3,1.5-2.7,2.2-4.2l2.3,1.2C-3195.1,1117.7-3197.5,1121.5-3199.7,1124.6z M-3203.7,1131.8
			c3.7-0.8,7.4-1.7,11.1-2.6c-0.1,0.8-0.1,1.6-0.1,2.4c-3.5,0.8-6.9,1.7-10.3,2.6L-3203.7,1131.8z M-3194.3,1134
			c3.9-1.4,7.3-3,10.2-4.9c-0.7-1.9-1.3-4.1-1.8-6.7l-6.7,0.9l-0.4-2.3l6.7-0.9c-0.2-1.5-0.3-3-0.4-4.7l-5.7,0.6l-0.4-2.3l5.9-0.7
			c-0.1-2.2-0.2-4.7-0.3-7.5h2.6c0.1,2.7,0.1,5.1,0.2,7.2l10.5-1.2l0.3,2.2l-10.6,1.2c0.1,1.6,0.2,3.2,0.4,4.6l10.8-1.5l0.3,2.2
			l-10.8,1.5c0.4,2.2,0.8,4,1.4,5.6c2.2-1.7,4-3.5,5.5-5.5l2,1.5c-1.9,2.3-4.1,4.3-6.5,6.1c0.8,1.4,1.8,2.5,2.9,3.3
			c1.4,0.8,2.3,0.4,2.7-1.3c0.3-1.3,0.5-2.8,0.7-4.4c1,0.4,1.8,0.7,2.4,0.9c-0.4,2.3-0.7,3.9-1.1,5.1c-0.6,1.8-1.6,2.7-3.1,2.7
			c-1.5,0-2.9-0.6-4.2-1.9c-0.8-0.8-1.6-1.8-2.3-3c-2.9,1.9-6.1,3.5-9.6,4.8C-3193.2,1135.6-3193.7,1134.9-3194.3,1134z
			 M-3181.9,1107.4l1.3-1.6c1.5,0.9,3.1,2.1,4.8,3.4l-1.5,1.8C-3179,1109.6-3180.5,1108.4-3181.9,1107.4z"/>
	</g>
	<g class="st1">
		<path class="st2" d="M-3299.4,1065.7h18.9c-0.1-2.7-0.2-5.7-0.3-9h2.4c0,3.3,0.1,6.3,0.2,9h9.3v2.2h-9.2
			c0.4,6.8,1.1,11.2,2.1,13.3s2,3.1,3.1,2.9c0.6-0.4,1-1.1,1.1-2s0.4-2.5,0.7-4.5c0.8,0.3,1.6,0.6,2.3,0.9c-0.2,2-0.5,3.8-0.9,5.3
			c-0.6,1.9-1.6,2.8-3.2,2.8c-1.9-0.1-3.3-1.1-4.4-2.8c-1.7-2.3-2.8-7.5-3.3-15.9h-19V1065.7z M-3289.5,1068.6h2.3v4.8h5.8v2.2h-5.8
			v6.4c2.5-0.3,5.1-0.6,7.8-0.9l0.3,2.2c-6.9,0.8-13.5,1.5-19.8,2.1l-0.4-2.3c1.1-0.1,2.2-0.2,3.3-0.3v-12.1h2.3v11.9
			c1.4-0.1,2.8-0.3,4.2-0.4V1068.6z M-3296.7,1059.2h13.9v2.2h-13.9V1059.2z M-3276.5,1059.6l1.4-1.6c1.7,1.2,3.4,2.5,5.2,3.9
			l-1.6,1.8C-3273.2,1062.1-3274.9,1060.8-3276.5,1059.6z"/>
		<path class="st2" d="M-3266.2,1065.4c1.9,1.4,3.7,2.8,5.4,4.3l-1.8,2c-2.3-2-4-3.5-5.3-4.4L-3266.2,1065.4z M-3262.8,1074
			c0.8,0.4,1.7,0.7,2.5,1c-1.1,4-2.3,8-3.4,12l-2.7-1C-3265,1082.4-3263.8,1078.4-3262.8,1074z M-3264.7,1057.2
			c2.3,1.6,4.3,3.1,6,4.5l-1.8,2c-2.4-2.1-4.3-3.7-5.7-4.7L-3264.7,1057.2z M-3258,1061.1v-2.4h18.3v2.1c-0.8,6.5-3.2,12-7.1,16.8
			c2.7,2.8,6.1,5,10.2,6.7c-0.6,0.6-1.2,1.5-1.9,2.5c-4-1.9-7.3-4.4-10-7.3c-2.8,2.9-6.3,5.5-10.5,7.7c-0.5-0.8-1.2-1.6-1.8-2.3
			c4.3-2,7.9-4.4,10.7-7.3c-3.4-4.5-5.3-10-6-16.5H-3258z M-3242.4,1061.1h-11.3c0.5,5.8,2.3,10.7,5.3,14.7
			C-3244.9,1071.6-3242.9,1066.7-3242.4,1061.1z"/>
		<path class="st2" d="M-3235.7,1084.7c7.8-3.3,12.3-7.9,13.6-13.9h-13.2v-2.4h13.5c0.1-1.5,0.1-4,0.1-7.7h-12v-2.4h27v2.4h-12.3
			c0,2.2-0.1,4.7-0.1,7.7h14v2.4h-13.6c2,6.6,6.7,11,14,13.3c-0.9,1-1.6,1.9-2.2,2.6c-6.8-2.7-11.3-7.3-13.4-13.6
			c-1.6,5.9-6.2,10.5-13.7,14C-3234.2,1086.6-3234.9,1085.8-3235.7,1084.7z"/>
		<path class="st2" d="M-3204,1068.8c3.1-3.8,5.4-7.9,6.8-12.5l2.3,0.8c-0.3,0.8-0.6,1.6-1,2.4h7.4v2.3c-1.4,7.9-5.8,13.9-13,17.9
			c-0.5-0.5-1-1.2-1.8-1.9c2.9-1.5,5.2-3.3,7-5.3c-1.4-1-2.7-2-4-2.9l1.1-1.6c1.5,0.9,2.9,1.9,4.3,2.9c0.6-0.8,1.1-1.6,1.5-2.3
			c-1.3-1-2.8-1.9-4.3-2.8l1-1.7c1.5,0.8,2.9,1.6,4.2,2.5c0.7-1.6,1.2-3.2,1.5-4.8h-6c-1.6,3.1-3.4,6.1-5.5,8.8
			C-3202.8,1070-3203.4,1069.4-3204,1068.8z M-3199.6,1079.4l2.3,0.8c-0.8,1.9-1.9,4.2-3.4,6.8c-0.7-0.3-1.5-0.7-2.3-1
			C-3201.4,1083.5-3200.3,1081.3-3199.6,1079.4z M-3194.4,1080.7l2.1-0.9c1,1.8,2,3.7,3,5.8l-2.3,1
			C-3192.4,1084.8-3193.3,1082.8-3194.4,1080.7z M-3188.3,1063.8h5c0.1-2.1,0.1-4.5,0.1-7.2h2.4c0,2.8,0,5.2-0.1,7.2h7.8v2.3h-7.4
			c1.2,4.9,3.9,8.3,8.2,10.5c-0.7,0.7-1.3,1.4-1.9,2.2c-3.6-2.2-6.1-5.5-7.5-9.9c-1.1,4-4,7.4-8.8,10.2c-0.4-0.6-0.9-1.3-1.6-2.1
			c5.1-2.8,8-6.4,8.7-10.9h-4.8V1063.8z M-3186.6,1080.5l2.1-0.9c1.1,1.8,2.1,3.7,3,5.7l-2.3,1
			C-3184.7,1084.2-3185.6,1082.3-3186.6,1080.5z M-3179.4,1058.5l1.5-1.4c1.5,1.3,2.8,2.5,4.1,3.6l-1.7,1.6
			C-3176.7,1061.2-3178,1059.9-3179.4,1058.5z M-3179,1079.9l2-1.2c1.6,2.4,2.9,4.5,4,6.3l-2.2,1.3
			C-3176.2,1084.5-3177.5,1082.3-3179,1079.9z"/>
		<path class="st2" d="M-3171.7,1068.8c3-3.8,5.2-8,6.7-12.6l2.5,0.8c-0.3,1-0.7,1.9-1.1,2.8h21.3v2.2h-22.3
			c-1.7,3.6-3.8,6.9-6.2,9.7C-3171.1,1070.5-3171.5,1069.5-3171.7,1068.8z M-3168.5,1072.2v-2.2h22.2v3.3c0,5,0.6,8.5,1.7,10.6
			c0.5,0.8,0.9,0.7,1.2-0.3c0.3-1.5,0.5-3.3,0.6-5.5c0.8,0.3,1.5,0.5,2.3,0.7c-0.1,1.6-0.3,3.4-0.7,5.3c-0.5,2-1.4,3.1-2.9,3.1
			c-1.1,0-2.1-0.7-2.7-2c-1.3-2.5-1.9-6.4-1.9-11.7v-1.2H-3168.5z M-3165,1064.9h20.4v2.1h-20.4V1064.9z"/>
		<path class="st2" d="M-3139.6,1059.2h14.3c-0.5-0.9-0.9-1.7-1.3-2.3l2.3-0.9c0.6,1,1.2,2.1,1.7,3.3h13.7v2.1h-30.8V1059.2z
			 M-3135.3,1086.9h-2.4v-14.7h27.3v10.6c0,2.6-1.2,3.8-3.6,3.8c-1.4,0-2.9,0-4.6-0.1c-0.1-0.7-0.3-1.5-0.5-2.5
			c1.9,0.1,3.4,0.2,4.4,0.2c1.3,0,1.9-0.6,1.9-1.9v-8.3h-22.6V1086.9z M-3134.2,1063.4h20.3v7.6h-2.4v-1h-15.5v1h-2.4V1063.4z
			 M-3116.3,1065.3h-15.5v2.8h15.5V1065.3z M-3131.1,1076.3h14.1v6.5h-11.9v1.3h-2.3V1076.3z M-3119.2,1080.9v-2.7h-9.6v2.7H-3119.2
			z"/>
		<path class="st2" d="M-3101.4,1069.1c0,4.6-0.3,8.1-0.9,10.5c-0.6,2.4-1.8,4.9-3.5,7.4c-0.5-0.6-1.1-1.3-1.9-2.1
			c1.5-2.3,2.5-4.4,3-6.3c0.5-1.9,0.7-4.9,0.7-8.8v-11.1h26.9v2.4h-24.3V1069.1z M-3101.4,1083h10.9v-11.1h-8.6v-2.3h8.6v-7h2.6v7
			h9.7v2.3h-9.7v11.1h10.9v2.3h-24.4V1083z M-3085.2,1075.4l1.8-1.4c1.6,1.6,3.2,3.3,4.7,5.1l-2.1,1.7
			C-3082.8,1078.2-3084.3,1076.5-3085.2,1075.4z"/>
		<path class="st2" d="M-3071.7,1075.3c1.9-0.3,4-0.6,6.6-1.1c-0.1,0.8-0.2,1.6-0.3,2.4c-3.5,0.5-6.5,1-9.2,1.5l-0.5-2.3
			c1.4-1.6,3-3.8,4.8-6.6c-1.7,0.1-3.3,0.2-4.8,0.4l-0.6-2.1c1.9-2.6,3.9-6.4,6-11.1l2.4,0.9c-2.1,4.2-4,7.6-5.5,10
			c1.2,0,2.5-0.1,3.8-0.1c0.7-1.3,1.5-2.7,2.2-4.2l2.3,1.2C-3067.1,1068.4-3069.5,1072.1-3071.7,1075.3z M-3075.7,1082.5
			c3.7-0.8,7.4-1.7,11.1-2.6c-0.1,0.8-0.1,1.6-0.1,2.4c-3.5,0.8-6.9,1.7-10.3,2.6L-3075.7,1082.5z M-3066.3,1084.7
			c3.9-1.4,7.3-3,10.2-4.9c-0.7-1.9-1.3-4.1-1.8-6.7l-6.7,0.9l-0.4-2.3l6.7-0.9c-0.2-1.5-0.3-3-0.4-4.7l-5.7,0.6l-0.4-2.3l5.9-0.7
			c-0.1-2.2-0.2-4.7-0.3-7.5h2.6c0.1,2.7,0.1,5.1,0.2,7.2l10.5-1.2l0.3,2.2l-10.6,1.2c0.1,1.6,0.2,3.2,0.4,4.6l10.8-1.5l0.3,2.2
			l-10.8,1.5c0.4,2.2,0.8,4,1.4,5.6c2.2-1.7,4-3.5,5.5-5.5l2,1.5c-1.9,2.3-4.1,4.3-6.5,6.1c0.8,1.4,1.8,2.5,2.9,3.3
			c1.4,0.8,2.3,0.4,2.7-1.3c0.3-1.3,0.5-2.8,0.7-4.4c1,0.4,1.8,0.7,2.4,0.9c-0.4,2.3-0.7,3.9-1.1,5.1c-0.6,1.8-1.6,2.7-3.1,2.7
			c-1.5,0-2.9-0.6-4.2-1.9c-0.8-0.8-1.6-1.8-2.3-3c-2.9,1.9-6.1,3.5-9.6,4.8C-3065.2,1086.3-3065.7,1085.5-3066.3,1084.7z
			 M-3053.9,1058.1l1.3-1.6c1.5,0.9,3.1,2.1,4.8,3.4l-1.5,1.8C-3051,1060.3-3052.5,1059.1-3053.9,1058.1z"/>
	</g>
</g>
<g class="st1">
	<path class="st3" d="M-3402.3,1385.4h14.2v-3.5h-8.7v1.5h-2.4v-15.2h6.5c-1-1.2-2.1-2.4-3.2-3.6l1.8-1.5c1.5,1.5,2.9,2.8,4.1,4.1
		l-1.2,1h7.3c1.1-1.5,2.3-3.2,3.5-5l2.5,1.3c-1.1,1.3-2.1,2.5-3.1,3.6h6.4v15.2h-2.4v-1.5h-8.7v3.5h14.2v2.3h-14.2v6.6h-2.4v-6.6
		h-14.2V1385.4z M-3396.8,1373.9h8.7v-3.6h-8.7V1373.9z M-3396.8,1379.6h8.7v-3.6h-8.7V1379.6z M-3377,1370.3h-8.7v3.6h8.7V1370.3z
		 M-3385.7,1379.6h8.7v-3.6h-8.7V1379.6z"/>
	<path class="st3" d="M-3370.5,1378.4c3-4.5,5.2-9.6,6.8-15.2l2.7,0.7c-0.9,2.6-1.8,5.1-2.8,7.4v22.8h-2.3v-17.9
		c-1,1.8-2,3.5-3.1,5.1C-3369.6,1380.5-3370,1379.6-3370.5,1378.4z M-3362,1390.2h12.2c1.5-4,3.2-9.7,5.2-17.2l2.8,0.8
		c-1.3,3.9-3.1,9.3-5.4,16.3h7.8v2.3h-22.7V1390.2z M-3361.3,1368.9h11c-0.9-1.6-2-3-3.1-4.3l2.1-1.5c0.9,1.1,2.1,2.5,3.4,4.3
		l-2.3,1.5h10.3v2.3h-21.4V1368.9z M-3357.1,1373.4c1.4,3.8,2.9,8.3,4.5,13.6l-2.6,0.8c-1.4-5.1-2.8-9.6-4.3-13.6L-3357.1,1373.4z"
		/>
	<path class="st3" d="M-3322.9,1372.2c0.6,0,1,0.2,1.4,0.6c0.4,0.4,0.6,0.8,0.6,1.4c0,0.5-0.2,1-0.6,1.4c-0.4,0.4-0.9,0.6-1.4,0.6
		c-0.6,0-1.1-0.2-1.4-0.6c-0.4-0.4-0.6-0.9-0.6-1.4c0-0.5,0.2-1,0.6-1.4C-3323.9,1372.4-3323.4,1372.2-3322.9,1372.2z
		 M-3322.9,1386.3c0.6,0,1,0.2,1.4,0.6c0.4,0.4,0.6,0.9,0.6,1.4c0,0.6-0.2,1-0.6,1.4c-0.4,0.4-0.9,0.6-1.4,0.6c-0.6,0-1-0.2-1.4-0.6
		c-0.4-0.4-0.6-0.9-0.6-1.4c0-0.6,0.2-1,0.6-1.4C-3323.9,1386.5-3323.4,1386.3-3322.9,1386.3z"/>
</g>
<text transform="matrix(1 0 0 1 -3306.9243 1392.7609)" class="st3 st4 st5"> </text>
<g class="st1">
	<path class="st3" d="M-3267.3,1392.8h-3.1v-9.9c0-1.9-0.3-3.2-0.9-4c-0.6-0.8-1.5-1.2-2.9-1.2c-1.1,0-2.1,0.5-2.9,1.6
		c-0.8,1.1-1.2,2.3-1.2,3.7v9.8h-3.1v-10.2c0-3.3-1.3-4.9-3.8-4.9c-1.2,0-2.1,0.5-2.9,1.5c-0.8,1-1.1,2.3-1.1,3.8v9.8h-3.1v-17.3
		h3.1v2.7h0.1c1.2-2.1,3-3.1,5.4-3.1c1.2,0,2.2,0.3,3.1,1c0.9,0.6,1.5,1.5,1.8,2.6c1.3-2.4,3.2-3.5,5.8-3.5c3.8,0,5.7,2.3,5.7,7
		V1392.8z"/>
	<path class="st3" d="M-3237.3,1392.8h-3.1v-9.9c0-1.9-0.3-3.2-0.9-4c-0.6-0.8-1.5-1.2-2.9-1.2c-1.1,0-2.1,0.5-2.9,1.6
		c-0.8,1.1-1.2,2.3-1.2,3.7v9.8h-3.1v-10.2c0-3.3-1.3-4.9-3.8-4.9c-1.2,0-2.1,0.5-2.9,1.5s-1.1,2.3-1.1,3.8v9.8h-3.1v-17.3h3.1v2.7
		h0.1c1.2-2.1,3-3.1,5.4-3.1c1.2,0,2.2,0.3,3.1,1c0.9,0.6,1.5,1.5,1.8,2.6c1.3-2.4,3.2-3.5,5.8-3.5c3.8,0,5.7,2.3,5.7,7V1392.8z"/>
</g>
<g class="st1">
	<path class="st6" d="M-3204.9,1385.4h14.2v-3.5h-8.7v1.5h-2.4v-15.2h6.5c-1-1.2-2.1-2.4-3.2-3.6l1.8-1.5c1.5,1.5,2.9,2.8,4.1,4.1
		l-1.2,1h7.3c1.1-1.5,2.3-3.2,3.5-5l2.5,1.3c-1.1,1.3-2.1,2.5-3.1,3.6h6.4v15.2h-2.4v-1.5h-8.7v3.5h14.2v2.3h-14.2v6.6h-2.4v-6.6
		h-14.2V1385.4z M-3199.4,1373.9h8.7v-3.6h-8.7V1373.9z M-3199.4,1379.6h8.7v-3.6h-8.7V1379.6z M-3179.7,1370.3h-8.7v3.6h8.7V1370.3
		z M-3188.4,1379.6h8.7v-3.6h-8.7V1379.6z"/>
	<path class="st6" d="M-3173.2,1378.4c3-4.5,5.2-9.6,6.8-15.2l2.7,0.7c-0.9,2.6-1.8,5.1-2.8,7.4v22.8h-2.3v-17.9
		c-1,1.8-2,3.5-3.1,5.1C-3172.3,1380.5-3172.7,1379.6-3173.2,1378.4z M-3164.6,1390.2h12.2c1.5-4,3.2-9.7,5.2-17.2l2.8,0.8
		c-1.3,3.9-3.1,9.3-5.4,16.3h7.8v2.3h-22.7V1390.2z M-3164,1368.9h11c-0.9-1.6-2-3-3.1-4.3l2.1-1.5c0.9,1.1,2.1,2.5,3.4,4.3
		l-2.3,1.5h10.3v2.3h-21.4V1368.9z M-3159.7,1373.4c1.4,3.8,2.9,8.3,4.5,13.6l-2.6,0.8c-1.4-5.1-2.8-9.6-4.3-13.6L-3159.7,1373.4z"
		/>
	<path class="st6" d="M-3125.5,1372.2c0.6,0,1,0.2,1.4,0.6c0.4,0.4,0.6,0.8,0.6,1.4c0,0.5-0.2,1-0.6,1.4c-0.4,0.4-0.9,0.6-1.4,0.6
		c-0.6,0-1.1-0.2-1.4-0.6c-0.4-0.4-0.6-0.9-0.6-1.4c0-0.5,0.2-1,0.6-1.4C-3126.6,1372.4-3126.1,1372.2-3125.5,1372.2z
		 M-3125.5,1386.3c0.6,0,1,0.2,1.4,0.6c0.4,0.4,0.6,0.9,0.6,1.4c0,0.6-0.2,1-0.6,1.4c-0.4,0.4-0.9,0.6-1.4,0.6c-0.6,0-1-0.2-1.4-0.6
		c-0.4-0.4-0.6-0.9-0.6-1.4c0-0.6,0.2-1,0.6-1.4C-3126.6,1386.5-3126.1,1386.3-3125.5,1386.3z"/>
</g>
<text transform="matrix(1 0 0 1 -3109.5703 1392.7604)" class="st6 st4 st5"> </text>
<g class="st1">
	<path class="st6" d="M-3072.6,1392.8v-16c0-1.3,0.1-2.9,0.2-4.8h-0.1c-0.3,1.2-0.5,2-0.7,2.4l-8,18.4h-1.7l-8-18.2
		c-0.2-0.4-0.4-1.3-0.7-2.6h-0.1c0.1,1.1,0.2,2.8,0.2,4.9v15.9h-3v-24.2h4.2l7.1,16.6c0.5,1.3,0.9,2.3,1.1,3h0.1
		c0.5-1.5,0.9-2.5,1.1-3l7.3-16.5h4v24.2H-3072.6z"/>
	<path class="st6" d="M-3060.1,1383.7v9h-3.1v-24.2h6.9c2.6,0,4.6,0.6,6.1,1.9c1.4,1.3,2.2,3.1,2.2,5.4c0,2.4-0.8,4.3-2.5,5.8
		c-1.7,1.5-3.8,2.2-6.3,2.1H-3060.1z M-3060.1,1371.3v9.7h2.9c1.9,0,3.4-0.4,4.3-1.3c1-0.9,1.5-2.1,1.5-3.7c0-3.1-1.8-4.7-5.5-4.7
		H-3060.1z"/>
	<path class="st6" d="M-3044.7,1376.7c1.7-1.1,3.7-1.6,6-1.6c4.2,0,6.3,2.2,6.3,6.6v11.1h-3v-2.7h-0.1c-1.2,2.1-3,3.1-5.3,3.1
		c-1.7,0-3-0.5-4-1.4c-1-0.9-1.5-2.1-1.5-3.7c0-3.2,1.9-5.1,5.7-5.6l5.1-0.7c0-2.8-1.2-4.2-3.5-4.2c-2.1,0-4,0.7-5.7,2.1V1376.7z
		 M-3039.6,1384.6c-1.4,0.2-2.4,0.5-2.9,1.1c-0.5,0.5-0.8,1.3-0.8,2.2c0,0.8,0.3,1.5,0.9,2c0.6,0.5,1.4,0.8,2.3,0.8
		c1.3,0,2.4-0.5,3.3-1.4c0.9-0.9,1.3-2.1,1.3-3.5v-1.7L-3039.6,1384.6z"/>
</g>
<text id="XMLID_4_" transform="matrix(1 0 0 1 -3528.1667 797.7257)" class="st2 st4 st7">图例</text>
<rect id="XMLID_3_" x="-3546.3" y="770" class="st2" width="5.8" height="32.8"/>
<g>
	<rect id="XMLID_13_" x="-3529.4" y="1218.8" class="st8" width="165.4" height="4.7"/>
	<rect id="XMLID_12_" x="-3529.4" y="1166" class="st9" width="165.4" height="4.7"/>
	<rect id="XMLID_11_" x="-3529.4" y="1270.5" class="st8" width="165.4" height="4.7"/>
	<rect id="XMLID_10_" x="-3529.4" y="1319.3" class="st9" width="165.4" height="4.7"/>
	<rect id="XMLID_9_" x="-3529.4" y="1120.3" class="st10" width="165.4" height="4.7"/>
	<rect id="XMLID_8_" x="-3529.4" y="1070" class="st11" width="165.4" height="4.7"/>
	<g>
		<circle class="st12" cx="-3446.8" cy="840.8" r="14.2"/>
		<g>
			<text transform="matrix(1.1136 0 0 1 -3454.2822 846.5098)" class="st13 st4 st14">M</text>
			<text transform="matrix(1.1136 0 0 1 -3454.2822 846.5098)" class="st15 st4 st14">M</text>
		</g>
	</g>
	<g>
		<path class="st16" d="M-3430.8,954.8c0,8.8-7.1,15.9-15.9,15.9c-2.5,0-11.5-0.2-14-1.4c-1.5-0.7,4.5-1,3.1-2.9
			c-3.1-2.9-5-7-5-11.6c0-8.8,7.1-15.9,15.9-15.9S-3430.8,946-3430.8,954.8z"/>
		<polygon class="st17" points="-3440.9,942.3 -3453.3,956.3 -3447.6,957.3 -3451.4,968.3 -3439.1,954.3 -3444.6,952.8 		"/>
	</g>
	<g>
		<ellipse class="st18" cx="-3446.8" cy="1003.8" rx="13.8" ry="3.7"/>
		<path class="st19" d="M-3460.6,1004.8v19.1c0,0,6,2.9,13.1,2.9c10.1,0,14.6-2.9,14.6-2.9v-19.1c0,0-1,1.3-4.1,2.2
			C-3442.9,1008.8-3457.8,1008.4-3460.6,1004.8z"/>
	</g>
	<g>
		<ellipse class="st20" cx="-3446.8" cy="893.3" rx="7.8" ry="5.9"/>
		<ellipse class="st21" cx="-3446.8" cy="893.3" rx="17.1" ry="12.9"/>
		<ellipse class="st22" cx="-3446.8" cy="893.3" rx="11.2" ry="8.4"/>
		<ellipse class="st23" cx="-3446.8" cy="893.3" rx="14.8" ry="11.1"/>
		<ellipse class="st22" cx="-3446.8" cy="893.3" rx="8.4" ry="6.3"/>
	</g>
</g>
</svg>
