<?xml version="1.0" encoding="utf-8"?>
<!-- Generator: Adobe Illustrator 19.0.0, SVG Export Plug-In . SVG Version: 6.00 Build 0)  -->
<svg version="1.1" id="图层_1" xmlns="http://www.w3.org/2000/svg" xmlns:xlink="http://www.w3.org/1999/xlink" x="0px" y="0px"
	 viewBox="-3564 756 550 650" style="enable-background:new -3564 756 550 650;" xml:space="preserve">
<style type="text/css">
	.st0{opacity:0.5;fill:#00141E;stroke:#FFFFFF;stroke-width:4;stroke-miterlimit:10;enable-background:new    ;}
	.st1{fill:#FFFFFF;}
	.st2{font-family:'MicrosoftYaHei';}
	.st3{font-size:32px;}
	.st4{fill:#7CF804;}
	.st5{fill:#38E1F8;}
	.st6{font-size:36px;}
	.st7{fill:#FCA825;}
	.st8{fill:#F57E0C;}
	.st9{fill:#FFB3B3;}
	.st10{fill:#FF00FF;}
	.st11{fill:none;stroke:#FFF100;stroke-width:6;stroke-miterlimit:10;}
	.st12{fill:#FFF100;}
	.st13{font-size:14.3622px;}
	.st14{fill:none;stroke:#FFF100;stroke-width:2;stroke-miterlimit:10;}
	.st15{fill:#A5A5A5;}
	.st16{fill:#FFF45C;}
	.st17{fill:#00B7EE;}
	.st18{fill:#2E8AA5;}
	.st19{fill:#FEDE02;}
	.st20{opacity:0.44;fill:#FEDE02;enable-background:new    ;}
	.st21{fill:none;stroke:#352511;stroke-miterlimit:10;}
	.st22{opacity:0.4;fill:none;stroke:#604C37;stroke-miterlimit:10;enable-background:new    ;}
</style>
<path id="XMLID_66_" class="st0" d="M-3023.1,1404.2h-532c-3.6,0-6.5-2.9-6.5-6.5V764.3c0-3.6,2.9-6.5,6.5-6.5h532.1
	c3.6,0,6.5,2.9,6.5,6.5v633.3C-3016.6,1401.3-3019.3,1404.2-3023.1,1404.2z"/>
<g id="XMLID_39_">
	<text id="XMLID_58_" transform="matrix(1 0 0 1 -3300.1826 850.2577)" class="st1 st2 st3">门站</text>
	<text id="XMLID_56_" transform="matrix(1 0 0 1 -3300.1826 902.6765)" class="st1 st2 st3">调压站</text>
	<text id="XMLID_55_" transform="matrix(1 0 0 1 -3300.1826 962.7655)" class="st1 st2 st3">燃气发电站</text>
	<text id="XMLID_54_" transform="matrix(1 0 0 1 -3300.1826 1022.7567)" class="st1 st2 st3">LNG气化站</text>
	<text id="XMLID_51_" transform="matrix(1 0 0 1 -3300.1826 1230.9481)" class="st1 st2 st3">中石油忠武线</text>
	<text id="XMLID_48_" transform="matrix(1 0 0 1 -3300.1826 1181.6239)" class="st1 st2 st3">中石化川气</text>
	<text id="XMLID_45_" transform="matrix(1 0 0 1 -3300.1826 1280.2733)" class="st1 st2 st3">中石油淮武线</text>
	<text id="XMLID_42_" transform="matrix(1 0 0 1 -3300.1826 1329.5985)" class="st1 st2 st3">中石油西气二线</text>
	<text id="XMLID_37_" transform="matrix(1 0 0 1 -3300.1826 1132.2997)" class="st1 st2 st3">外环管线</text>
	<text id="XMLID_2_" transform="matrix(1 0 0 1 -3300.1826 1082.9745)" class="st1 st2 st3">武汉天然气高压线</text>
</g>
<text transform="matrix(1 0 0 1 -3402.9243 1389.9005)" class="st4 st2 st3">单位：</text>
<text transform="matrix(1 0 0 1 -3306.9243 1392.7609)" class="st4 st2 st3"> </text>
<text transform="matrix(1 0 0 1 -3294.9243 1392.7609)" class="st4 st2 st3">mm</text>
<text transform="matrix(1 0 0 1 -3205.5703 1389.9)" class="st5 st2 st3">单位：</text>
<text transform="matrix(1 0 0 1 -3109.5703 1392.7604)" class="st5 st2 st3"> </text>
<text transform="matrix(1 0 0 1 -3097.5703 1392.7604)" class="st5 st2 st3">MPa</text>
<text id="XMLID_4_" transform="matrix(1 0 0 1 -3528.1667 797.7257)" class="st1 st2 st6">图例</text>
<rect id="XMLID_3_" x="-3546.3" y="770" class="st1" width="5.8" height="32.8"/>
<g>
	<rect id="XMLID_13_" x="-3529.4" y="1218.8" class="st7" width="165.4" height="4.7"/>
	<rect id="XMLID_12_" x="-3529.4" y="1166" class="st8" width="165.4" height="4.7"/>
	<rect id="XMLID_11_" x="-3529.4" y="1270.5" class="st7" width="165.4" height="4.7"/>
	<rect id="XMLID_10_" x="-3529.4" y="1319.3" class="st8" width="165.4" height="4.7"/>
	<rect id="XMLID_9_" x="-3529.4" y="1120.3" class="st9" width="165.4" height="4.7"/>
	<rect id="XMLID_8_" x="-3529.4" y="1070" class="st10" width="165.4" height="4.7"/>
	<g>
		<circle class="st11" cx="-3446.8" cy="840.8" r="14.2"/>
		<g>
			<text transform="matrix(1.1136 0 0 1 -3454.2822 846.5098)" class="st12 st2 st13">M</text>
			<text transform="matrix(1.1136 0 0 1 -3454.2822 846.5098)" class="st14 st2 st13">M</text>
		</g>
	</g>
	<g>
		<path class="st15" d="M-3430.8,954.8c0,8.8-7.1,15.9-15.9,15.9c-2.5,0-11.5-0.2-14-1.4c-1.5-0.7,4.5-1,3.1-2.9
			c-3.1-2.9-5-7-5-11.6c0-8.8,7.1-15.9,15.9-15.9S-3430.8,946-3430.8,954.8z"/>
		<polygon class="st16" points="-3440.9,942.3 -3453.3,956.3 -3447.6,957.3 -3451.4,968.3 -3439.1,954.3 -3444.6,952.8 		"/>
	</g>
	<g>
		<ellipse class="st17" cx="-3446.8" cy="1003.8" rx="13.8" ry="3.7"/>
		<path class="st18" d="M-3460.6,1004.8v19.1c0,0,6,2.9,13.1,2.9c10.1,0,14.6-2.9,14.6-2.9v-19.1c0,0-1,1.3-4.1,2.2
			C-3442.9,1008.8-3457.8,1008.4-3460.6,1004.8z"/>
	</g>
	<g>
		<ellipse class="st19" cx="-3446.8" cy="893.3" rx="7.8" ry="5.9"/>
		<ellipse class="st20" cx="-3446.8" cy="893.3" rx="17.1" ry="12.9"/>
		<ellipse class="st21" cx="-3446.8" cy="893.3" rx="11.2" ry="8.4"/>
		<ellipse class="st22" cx="-3446.8" cy="893.3" rx="14.8" ry="11.1"/>
		<ellipse class="st21" cx="-3446.8" cy="893.3" rx="8.4" ry="6.3"/>
	</g>
</g>
</svg>
